<svg width="627" height="632" viewBox="0 0 627 642" fill="none" xmlns="http://www.w3.org/2000/svg">
<path d="M-146 24H590C609.33 24 625 39.67 625 59V607C625 626.33 609.33 642 590 642H-146V24Z" fill="url(#paint0_linear_2016_232)"/>
<rect x="44" width="16" height="642" fill="white"/>
<rect x="118" width="16" height="642" fill="white"/>
<rect x="192" width="16" height="642" fill="white"/>
<rect x="266" width="16" height="642" fill="white"/>
<rect x="340" width="16" height="642" fill="white"/>
<rect x="414" width="16" height="642" fill="white"/>
<rect x="488" width="16" height="642" fill="white"/>
<rect x="562" width="16" height="642" fill="white"/>
<rect x="-156" y="113" width="16" height="783" transform="rotate(-90 -156 113)" fill="white"/>
<rect x="-156" y="197" width="16" height="783" transform="rotate(-90 -156 197)" fill="white"/>
<rect x="-156" y="281" width="16" height="783" transform="rotate(-90 -156 281)" fill="white"/>
<rect x="-156" y="365" width="16" height="783" transform="rotate(-90 -156 365)" fill="white"/>
<rect x="-156" y="449" width="16" height="783" transform="rotate(-90 -156 449)" fill="white"/>
<rect x="-156" y="533" width="16" height="783" transform="rotate(-90 -156 533)" fill="white"/>
<rect x="-156" y="617" width="16" height="783" transform="rotate(-90 -156 617)" fill="white"/>
<defs>
<linearGradient id="paint0_linear_2016_232" x1="179.824" y1="12" x2="58.5905" y2="617.736" gradientUnits="userSpaceOnUse">
<stop class="stop-1" stop-color="#0095F5"/>
<stop class = "stop-2" offset="1" stop-color="#0045D0"/>
</linearGradient>
</defs>
</svg>
